<svg width="47" height="47" viewBox="0 0 47 47" fill="none" xmlns="http://www.w3.org/2000/svg">
<circle cx="23.5" cy="23.5" r="23.5" fill="#5D9ADA"/>
<path d="M23.3906 22.8906C23.4323 22.9219 23.5521 22.9375 23.75 22.9375C23.9479 22.9375 24.099 22.8594 24.2031 22.7031C24.3073 22.5469 24.3594 22.2917 24.3594 21.9375V21.375C24.3594 21 24.3125 20.7344 24.2188 20.5781C24.1354 20.4115 23.9896 20.3281 23.7812 20.3281C23.5833 20.3281 23.4479 20.349 23.375 20.3906C23.3854 20.4427 23.3906 20.5312 23.3906 20.6562V22.8906ZM31.4531 26.4531L34.1562 29.2188C33.9688 30.8438 33.4531 32.0938 32.6094 32.9688C31.776 33.8438 30.6198 34.2812 29.1406 34.2812C28.026 34.2812 27.0573 34.0156 26.2344 33.4844C25.1823 32.8177 24.3958 31.7552 23.875 30.2969L23.3125 28.7656C22.875 28.7552 22.3229 28.6979 21.6562 28.5938C21.5729 28.6771 21.5312 28.7917 21.5312 28.9375C21.5312 29.2188 21.9531 29.3854 22.7969 29.4375L23.6875 31.6875V33.0156C22.4896 33.8594 20.9531 34.2812 19.0781 34.2812C17.7344 34.2812 16.6615 34.0052 15.8594 33.4531C15.0573 32.901 14.6562 32.099 14.6562 31.0469V16.2031C14.6562 15.7448 15.0781 15.3021 15.9219 14.875C16.7656 14.4375 17.8698 14.0885 19.2344 13.8281C20.599 13.5573 21.9635 13.4219 23.3281 13.4219C26.4531 13.4219 28.8958 14.0625 30.6562 15.3438C32.5104 16.6875 33.4375 18.5781 33.4375 21.0156C33.4375 22.4115 33.0417 23.6094 32.25 24.6094C31.4688 25.599 30.4792 26.2865 29.2812 26.6719C29.2812 27.0052 29.4792 27.1719 29.875 27.1719C30.2812 27.1719 30.8073 26.9323 31.4531 26.4531Z" fill="white"/>
</svg>
